<svg width="512" height="512" viewBox="0 0 512 512" fill="none" xmlns="http://www.w3.org/2000/svg">
<path d="M17.0671 494.932H8.53589C3.82104 494.932 0.000732422 498.752 0.000732422 503.467C0.000732422 508.178 3.82104 511.999 8.53589 511.999H17.0671C21.782 511.999 25.6023 508.178 25.6023 503.467C25.6023 498.752 21.782 494.932 17.0671 494.932V494.932Z" fill="#FE8239"/>
<path d="M290.133 511.999C294.848 511.999 298.668 508.178 298.668 503.467C298.668 498.752 294.848 494.932 290.133 494.932H281.602C276.887 494.932 273.066 498.752 273.066 503.467C273.066 508.178 276.887 511.999 281.602 511.999H290.133Z" fill="#FE8239"/>
<path d="M110.934 170.668C113.195 170.668 115.367 169.77 116.969 168.168L125.5 159.633C128.734 156.285 128.688 150.965 125.398 147.672C122.106 144.379 116.781 144.336 113.434 147.57L104.902 156.102C102.461 158.543 101.731 162.211 103.051 165.398C104.371 168.59 107.484 170.668 110.934 170.668Z" fill="#FE8239"/>
<path d="M179.199 153.602C181.465 153.602 183.633 152.703 185.234 151.102L193.766 142.566C197 139.219 196.953 133.898 193.664 130.605C190.371 127.313 185.051 127.27 181.699 130.5L173.168 139.035C170.727 141.477 170 145.145 171.32 148.332C172.641 151.523 175.75 153.602 179.199 153.602Z" fill="#FE8239"/>
<path d="M307.199 153.602C309.465 153.602 311.633 152.703 313.234 151.102L321.766 142.566C325 139.219 324.953 133.898 321.664 130.605C318.371 127.313 313.051 127.27 309.699 130.5L301.168 139.035C298.727 141.477 298 145.145 299.32 148.332C300.641 151.523 303.75 153.602 307.199 153.602Z" fill="#FE8239"/>
<path d="M238.934 213.336C241.195 213.336 243.367 212.434 244.969 210.836L253.5 202.301C256.734 198.953 256.688 193.629 253.398 190.34C250.106 187.047 244.781 187 241.434 190.234L232.902 198.77C230.461 201.207 229.731 204.879 231.051 208.066C232.371 211.254 235.484 213.336 238.934 213.336Z" fill="#FE8239"/>
<path d="M164.633 210.836C167.984 214.07 173.305 214.023 176.598 210.73C179.887 207.437 179.934 202.117 176.699 198.77L168.168 190.234C164.82 187 159.496 187.047 156.203 190.34C152.914 193.629 152.867 198.953 156.102 202.301L164.633 210.836Z" fill="#FE8239"/>
<path d="M79.3008 219.367C82.6485 222.602 87.9727 222.555 91.2618 219.266C94.5547 215.973 94.6016 210.648 91.3672 207.301L82.8321 198.77C79.4844 195.535 74.1641 195.582 70.8711 198.871C67.5782 202.164 67.5352 207.484 70.7696 210.836L79.3008 219.367Z" fill="#FE8239"/>
<path d="M377.969 159.633C381.316 162.867 386.637 162.82 389.93 159.531C393.223 156.238 393.269 150.918 390.035 147.57L381.5 139.035C378.152 135.801 372.828 135.848 369.539 139.141C366.246 142.43 366.199 147.754 369.434 151.102L377.969 159.633Z" fill="#FE8239"/>
<path d="M309.699 190.234C306.371 193.566 306.371 198.969 309.699 202.301L318.234 210.836C321.582 214.07 326.906 214.023 330.195 210.73C333.488 207.437 333.535 202.117 330.301 198.77L321.766 190.234C318.434 186.902 313.035 186.902 309.699 190.234V190.234Z" fill="#FE8239"/>
<path d="M409.602 221.867C411.863 221.867 414.035 220.969 415.633 219.367L424.168 210.836C427.402 207.484 427.356 202.164 424.063 198.871C420.774 195.582 415.449 195.535 412.102 198.77L403.566 207.301C401.129 209.742 400.399 213.41 401.719 216.602C403.039 219.789 406.149 221.867 409.602 221.867V221.867Z" fill="#FE8239"/>
<path d="M489.104 272.062C492.846 267.542 494.905 261.866 494.932 255.999V247.468C494.842 167.386 429.948 102.492 349.866 102.402H241.359L219.488 55.8709L219.382 55.6639L195.413 4.89842C194.441 2.81639 192.663 1.21874 190.492 0.472651C188.32 -0.281253 185.941 -0.12891 183.886 0.898431L115.617 35.0311C112.328 36.6718 110.461 40.2382 110.98 43.8749C111.5 47.5155 114.297 50.4139 117.914 51.0663L205.808 67.0037L222.507 102.402H162.132C82.0544 102.492 17.1562 167.386 17.0664 247.468V255.999C17.0976 261.866 19.1562 267.542 22.8945 272.062C8.66404 280.964 0.015625 296.558 0 313.343V318.124C0.0234374 337.448 11.4375 354.94 29.1171 362.745C26.8398 366.6 25.6288 370.991 25.6015 375.468V409.6C25.6288 433.151 44.7147 452.237 68.2654 452.268H69.0193C68.5389 455.042 68.2889 457.854 68.2654 460.671C68.2732 473.284 72.9529 485.448 81.4099 494.807H51.1991C46.4881 494.807 42.6678 498.627 42.6678 503.338C42.6678 508.053 46.4881 511.874 51.1991 511.874H119.468C134.543 511.963 148.882 505.366 158.621 493.858C168.359 482.354 172.496 467.12 169.917 452.268H342.085C341.604 455.042 341.354 457.854 341.335 460.671C341.339 473.284 346.022 485.448 354.476 494.807H324.265C319.554 494.807 315.733 498.627 315.733 503.338C315.733 508.053 319.554 511.874 324.265 511.874H392.534C407.608 511.963 421.948 505.366 431.686 493.858C441.424 482.354 445.561 467.12 442.983 452.268H443.733C467.284 452.237 486.37 433.151 486.401 409.6V375.468C486.374 370.991 485.159 366.6 482.885 362.745C500.561 354.94 511.975 337.448 511.999 318.124V313.343C511.983 296.558 503.334 280.964 489.104 272.062V272.062ZM146.203 38.8436L183.749 20.0703L196.933 48.035L146.203 38.8436ZM34.1327 247.468C34.2147 176.808 91.4763 119.547 162.132 119.468H230.527L242.562 145.066H238.933C234.222 145.066 230.402 148.89 230.402 153.601C230.402 158.312 234.222 162.136 238.933 162.136H273.066C277.78 162.136 281.601 158.312 281.601 153.601C281.601 148.89 277.78 145.066 273.066 145.066H261.417L249.378 119.468H349.866C420.526 119.547 477.788 176.808 477.866 247.468V255.999C477.866 260.714 474.045 264.534 469.335 264.534H42.6678C37.953 264.534 34.1327 260.714 34.1327 255.999V247.468ZM332.8 341.335C332.8 336.62 328.98 332.8 324.265 332.8C319.554 332.8 315.733 336.62 315.733 341.335V366.933C315.733 371.647 311.913 375.468 307.198 375.468C302.487 375.468 298.667 371.647 298.667 366.933V281.601H349.866V383.999C349.866 388.714 346.046 392.534 341.335 392.534C336.62 392.534 332.8 388.714 332.8 383.999V341.335ZM116.308 281.601L125.297 289.28L107.547 307.03C104.379 310.194 99.3044 310.374 95.9255 307.441L65.7068 281.601H116.308ZM142.507 281.601H209.777L184.32 307.054C181.16 310.187 176.128 310.382 172.734 307.507L142.507 281.601ZM233.906 281.601H281.601V295.136L269.652 307.081C266.491 310.241 261.421 310.425 258.038 307.499L231.167 284.366L233.906 281.601ZM17.0664 318.124V313.343C17.1132 298.925 26.8827 286.351 40.8397 282.737L84.8396 320.444C89.4919 324.44 95.4216 326.644 101.554 326.655C108.34 326.651 114.836 323.937 119.613 319.12L138.293 300.441L161.648 320.46C171.824 329.108 186.929 328.526 196.413 319.12L219.07 296.464L246.972 320.444C251.628 324.44 257.554 326.644 263.687 326.655C270.405 326.647 276.847 323.983 281.609 319.241V349.866H48.8124C31.289 349.847 17.0859 335.647 17.0664 318.124V318.124ZM119.468 494.807C100.617 494.807 85.3357 479.522 85.3357 460.671C85.3357 441.819 100.617 426.538 119.468 426.538C138.32 426.538 153.601 441.819 153.601 460.671C153.601 479.522 138.32 494.807 119.468 494.807ZM392.534 494.807C373.683 494.807 358.401 479.522 358.401 460.671C358.401 441.819 373.683 426.538 392.534 426.538C411.386 426.538 426.667 441.819 426.667 460.671C426.667 479.522 411.386 494.807 392.534 494.807ZM469.335 409.6C469.335 423.737 457.87 435.202 443.733 435.202H436.905C427.815 419.268 410.878 409.432 392.534 409.432C374.186 409.432 357.253 419.268 348.159 435.202H163.839C154.75 419.268 137.812 409.432 119.468 409.432C101.121 409.432 84.1873 419.268 75.0935 435.202H68.2654C54.1287 435.202 42.6678 423.737 42.6678 409.6V375.468C42.6678 370.753 46.4881 366.933 51.1991 366.933H281.601C281.569 375.44 285.784 383.401 292.835 388.163C299.882 392.925 308.843 393.858 316.722 390.655C320.042 403.046 332.034 411.05 344.749 409.366C357.464 407.678 366.956 396.827 366.933 383.999V366.933H460.799C465.51 366.933 469.335 370.753 469.335 375.468V409.6ZM494.932 318.124C494.913 335.647 480.713 349.847 463.19 349.866H366.933V281.601H463.19C480.713 281.62 494.913 295.819 494.932 313.343V318.124Z" fill="#FE8239"/>
<path d="M102.402 25.6016C107.113 25.6016 110.934 21.7813 110.934 17.0664C110.934 12.3555 107.113 8.53516 102.402 8.53516H68.2656C63.5547 8.53516 59.7344 12.3555 59.7344 17.0664C59.7344 21.7813 63.5547 25.6016 68.2656 25.6016H102.402Z" fill="#FE8239"/>
<path d="M34.1328 8.53516H25.6016C20.8867 8.53516 17.0664 12.3555 17.0664 17.0664C17.0664 21.7813 20.8867 25.6016 25.6016 25.6016H34.1328C38.8477 25.6016 42.668 21.7813 42.668 17.0664C42.668 12.3555 38.8477 8.53516 34.1328 8.53516Z" fill="#FE8239"/>
<path d="M42.668 51.2031C42.668 55.9141 46.4883 59.7344 51.1992 59.7344H85.3359C90.0469 59.7344 93.8672 55.9141 93.8672 51.2031C93.8672 46.4883 90.0469 42.668 85.3359 42.668H51.1992C46.4883 42.668 42.668 46.4883 42.668 51.2031Z" fill="#FE8239"/>
<path d="M8.53516 42.668C3.82031 42.668 0 46.4883 0 51.2031C0 55.9141 3.82031 59.7344 8.53516 59.7344H17.0664C21.7813 59.7344 25.6016 55.9141 25.6016 51.2031C25.6016 46.4883 21.7813 42.668 17.0664 42.668H8.53516Z" fill="#FE8239"/>
</svg>
