<svg width="496" height="496" viewBox="0 0 496 496" fill="none" xmlns="http://www.w3.org/2000/svg">
<path d="M472 272V168C472 154.768 461.232 144 448 144H432C425.832 144 420.256 146.408 416 150.24C411.744 146.4 406.168 144 400 144H384C377.832 144 372.256 146.408 368 150.24C363.744 146.4 358.168 144 352 144H336C322.768 144 312 154.768 312 168V270.656C293.544 257.864 266.608 246.976 227.168 242.368L239.768 154.16C239.92 153.096 240 152.016 240 150.936C240 138.288 229.712 128 217.064 128H144V56C144 51.592 147.592 48 152 48H216C229.232 48 240 37.232 240 24C240 10.768 229.232 0 216 0H144C117.528 0 96 21.528 96 48V128H22.936C10.288 128 0 138.288 0 150.936C0 152.016 0.08 153.096 0.232 154.184L19.512 289.128C0.495998 311.776 0 334.112 0 336C0 349.952 9.024 361.712 21.496 366.088C18.032 371.2 16 377.368 16 384C16 392.528 19.4 400.232 24.856 405.976C10.056 414.16 0 429.92 0 448C0 474.472 21.528 496 48 496H288H304H496V328V320V296C496 282.768 485.232 272 472 272ZM424 168C424 163.592 427.592 160 432 160H448C452.408 160 456 163.592 456 168V272H424V168ZM376 168C376 163.592 379.592 160 384 160H400C404.408 160 408 163.592 408 168V272H376V168ZM328 168C328 163.592 331.592 160 336 160H352C356.408 160 360 163.592 360 168V272H328V168ZM200 16H216C220.408 16 224 19.592 224 24C224 28.408 220.408 32 216 32H200V16ZM168 16H184V32H168V16ZM112 48C112 30.352 126.352 16 144 16H152V32C138.768 32 128 42.768 128 56V128H112V48ZM17.224 160L16.072 151.944C16.024 151.608 16 151.272 16 150.936C16 147.112 19.112 144 22.936 144H96H144H217.064C220.888 144 224 147.112 224 150.936C224 151.272 223.976 151.608 223.936 151.92L222.776 160H200V176H220.488L215.92 208H24.08L19.512 176H184V160H17.224ZM213.64 224L211.224 240.928C202.656 240.336 193.632 240 184 240H168C98.288 240 57.568 256.232 33.704 275.352L26.368 224H213.64ZM16 336C16 335.2 17.736 256 168 256H184C333.224 256 335.96 332.784 336 336C336 344.824 328.824 352 320 352H312H304H48H32C23.176 352 16 344.824 16 336ZM48 400C39.176 400 32 392.824 32 384C32 375.176 39.176 368 48 368H304C312.824 368 320 375.176 320 384C320 392.824 312.824 400 304 400H48ZM270.608 416L237.784 454.296L150.24 416H270.608ZM304 480H288H48C30.352 480 16 465.648 16 448C16 430.352 30.352 416 48 416H110.328L242.216 473.704L291.68 416H304C321.648 416 336 430.352 336 448C336 465.648 321.648 480 304 480ZM327.152 405.976C332.6 400.232 336 392.528 336 384C336 378.144 334.304 372.728 331.552 368H448V448H352C352 442.384 350.976 437.016 349.2 432H400V416H339.68C336.096 412.008 331.88 408.592 327.152 405.976ZM480 320H464V336H480V480H339.68C343.832 475.376 347.088 469.968 349.2 464H464V352H347.552C350.304 347.272 352 341.856 352 336H448V320H349.288C346.688 311.104 341.552 299.56 331.536 288H472C476.408 288 480 291.584 480 296V320Z" fill="#FE8239"/>
<path d="M432 416H416V432H432V416Z" fill="#FE8239"/>
<path d="M120 272H104V288H120V272Z" fill="#FE8239"/>
<path d="M152 288H136V304H152V288Z" fill="#FE8239"/>
<path d="M184 272H168V288H184V272Z" fill="#FE8239"/>
<path d="M232 296H216V312H232V296Z" fill="#FE8239"/>
<path d="M272 272H256V288H272V272Z" fill="#FE8239"/>
<path d="M72 304H56V320H72V304Z" fill="#FE8239"/>
</svg>
