<svg width="512" height="512" viewBox="0 0 512 512" fill="none" xmlns="http://www.w3.org/2000/svg">
<path d="M488 448H462.24L455.76 422.064C455.277 420.13 454.088 418.445 452.428 417.341C450.768 416.237 448.755 415.793 446.784 416.096L352 430.672V201.376L391.528 90.688C392.186 88.8471 392.148 86.8289 391.42 85.0145C390.692 83.2 389.324 81.7151 387.576 80.84L355.576 64.84C354.549 64.3217 353.422 64.0311 352.273 63.9879C351.123 63.9446 349.978 64.1498 348.915 64.5895C347.852 65.0291 346.896 65.6929 346.113 66.5355C345.329 67.3781 344.737 68.3797 344.376 69.472L338.24 88H320V72C320 69.8783 319.157 67.8434 317.657 66.3431C316.157 64.8429 314.122 64 312 64H280C277.878 64 275.843 64.8429 274.343 66.3431C272.843 67.8434 272 69.8783 272 72V96H256V56C256 53.8783 255.157 51.8434 253.657 50.3431C252.157 48.8429 250.122 48 248 48H224V24C224 21.8783 223.157 19.8434 221.657 18.3431C220.157 16.8429 218.122 16 216 16H184C181.878 16 179.843 16.8429 178.343 18.3431C176.843 19.8434 176 21.8783 176 24V72H160V56C160 53.8783 159.157 51.8434 157.657 50.3431C156.157 48.8429 154.122 48 152 48H120C117.878 48 115.843 48.8429 114.343 50.3431C112.843 51.8434 112 53.8783 112 56V88H96.0001V80C96.0001 77.8783 95.1572 75.8434 93.6569 74.3431C92.1566 72.8429 90.1218 72 88.0001 72H70.5601L63.8401 38.4C63.6239 37.3423 63.1959 36.3392 62.5818 35.4513C61.9677 34.5633 61.1803 33.8089 60.2669 33.2333C59.3535 32.6578 58.3331 32.2731 57.2671 32.1024C56.201 31.9317 55.1115 31.9785 54.0641 32.24L22.0641 40.24C20.0548 40.7403 18.3178 42.0002 17.2183 43.7547C16.1187 45.5092 15.7423 47.6217 16.1681 49.648L48.0001 200.8V488C48.0001 490.122 48.8429 492.157 50.3432 493.657C51.8435 495.157 53.8783 496 56.0001 496H488C490.122 496 492.157 495.157 493.657 493.657C495.157 492.157 496 490.122 496 488V456C496 453.878 495.157 451.843 493.657 450.343C492.157 448.843 490.122 448 488 448ZM352 97.288L356.672 83.28L374.08 92L352 153.816V97.288ZM48.0001 80V123.2L33.4161 53.888L49.8001 49.8L54.3121 72.344C52.5418 72.7034 50.9488 73.66 49.7997 75.0538C48.6506 76.4475 48.0153 78.1937 48.0001 80V80ZM442.008 433.016L445.752 448H344.632L442.008 433.016ZM320 104H336V195.12C332.672 196.72 327.288 199.232 320 202.104V104ZM288 80H304V207.824C299.115 209.424 293.781 210.995 288 212.536V80ZM256 112H272V216.4C266.904 217.496 261.6 218.512 256 219.432V112ZM224 64H240V221.6C234.832 222.2 229.488 222.68 224 223.064V64ZM192 32H208V223.824C205.336 223.88 202.728 224 200 224C197.272 224 194.664 223.88 192 223.824V32ZM160 88H176V223.096C170.512 222.712 165.168 222.232 160 221.632V88ZM128 64H144V219.432C138.4 218.512 133.096 217.496 128 216.4V64ZM96.0001 104H112V212.536C106.229 210.989 100.896 209.419 96.0001 207.824V104ZM64.0001 88H80.0001V202.104C72.7121 199.232 67.3281 196.76 64.0001 195.12V88ZM64.0001 212.848C106.967 231.208 153.277 240.453 200 240C246.723 240.453 293.033 231.208 336 212.848V320H273.272C267.056 305.736 256.812 293.597 243.796 285.072C230.78 276.546 215.559 272.005 200 272.005C184.441 272.005 169.22 276.546 156.204 285.072C143.189 293.597 132.944 305.736 126.728 320H64.0001V212.848ZM278.4 336H336V368H278.4C280.555 357.442 280.555 346.558 278.4 336ZM264 352C264 364.658 260.247 377.032 253.214 387.556C246.182 398.081 236.186 406.284 224.492 411.128C212.797 415.972 199.929 417.24 187.514 414.77C175.099 412.301 163.696 406.205 154.745 397.255C145.795 388.304 139.699 376.901 137.23 364.486C134.76 352.071 136.028 339.203 140.872 327.508C145.716 315.814 153.919 305.818 164.444 298.786C174.968 291.754 187.342 288 200 288C216.968 288.019 233.236 294.768 245.234 306.766C257.232 318.764 263.981 335.032 264 352V352ZM64.0001 336H121.6C119.445 346.558 119.445 357.442 121.6 368H64.0001V336ZM176 456V480H64.0001V384H126.728C132.944 398.264 143.189 410.403 156.204 418.928C169.22 427.454 184.441 431.995 200 431.995C215.559 431.995 230.78 427.454 243.796 418.928C256.812 410.403 267.056 398.264 273.272 384H336V433.136L239.392 448H184C181.878 448 179.843 448.843 178.343 450.343C176.843 451.843 176 453.878 176 456ZM480 480H192V464H480V480Z" fill="#FE8239"/>
<path d="M96 416H80V456C80 458.122 80.8429 460.157 82.3431 461.657C83.8434 463.157 85.8783 464 88 464H112V448H96V416Z" fill="#FE8239"/>
</svg>
