<svg width="24" height="24" viewBox="0 0 24 24" fill="none" xmlns="http://www.w3.org/2000/svg">
<path d="M22.8798 10.4101C20.7698 12.1801 17.6098 11.9001 15.8398 9.79011C14.0598 7.67011 14.3398 4.50011 16.4498 2.75011L16.9598 2.37011C15.2698 4.19011 15.1598 7.03011 16.7998 9.00011C18.4298 10.9401 21.2498 11.3201 23.3398 9.97011L22.8798 10.4101ZM21.0998 14.5001C17.9298 17.1701 13.1998 16.7601 10.5398 13.5801C7.86976 10.4101 8.28976 5.68011 11.4598 3.00011L12.3798 2.36011C9.95976 5.09011 9.83976 9.26011 12.2598 12.1401C14.6798 15.0001 18.7998 15.6301 21.9098 13.7201L21.0998 14.5001ZM19.9698 19.3801C15.5298 23.1101 8.89976 22.5301 5.16976 18.0801C1.44976 13.6401 2.02976 7.00011 6.46976 3.29011L7.57976 2.50011C4.06976 6.30011 3.84976 12.2301 7.27976 16.3201C10.7098 20.4001 16.5898 21.2201 20.9598 18.4301L19.9698 19.3801Z" fill="#0868AC"/>
</svg>
