<svg width="512" height="512" viewBox="0 0 512 512" fill="none" xmlns="http://www.w3.org/2000/svg">
<path d="M456.354 334.396C455.859 333.568 455.338 332.775 454.818 332.075C449.647 324.847 441.958 320.069 433.186 318.626C424.456 317.184 415.607 319.24 408.405 324.412L313.002 392.534H213.333C208.631 392.534 204.8 388.711 204.8 384.001C204.8 379.291 208.631 375.468 213.333 375.468H268.8C285.269 375.468 298.667 362.071 298.667 345.601C298.667 345.507 298.658 344.722 298.65 344.637C298.121 328.176 284.237 315.342 268.118 315.735H157.108C147.269 315.82 137.686 319.345 130.134 325.642L88.406 360.373C86.46 362.003 85.334 364.401 85.334 366.935V469.335C85.334 474.054 89.157 477.868 93.867 477.868H305.588C319.446 477.851 332.946 472.97 343.613 464.138L447.063 378.66C461.116 368.648 465.195 349.21 456.354 334.396ZM436.685 365.133L332.74 450.987C325.111 457.302 315.46 460.783 305.578 460.8H102.4V370.935L141.064 338.747C145.604 334.967 151.347 332.85 157.184 332.799L268.39 332.791C275.464 332.782 281.369 338.133 281.6 345.6C281.6 352.657 275.857 358.4 268.8 358.4H213.333C199.219 358.4 187.733 369.886 187.733 384C187.733 398.114 199.219 409.6 213.333 409.6H315.733C317.508 409.6 319.24 409.045 320.708 408.013L418.346 338.287C421.862 335.761 426.137 334.78 430.421 335.462C434.696 336.17 438.434 338.491 441.002 342.075C441.258 342.425 441.488 342.783 441.71 343.15C446.029 350.379 444.023 359.876 436.685 365.133Z" fill="#FE8239"/>
<path d="M93.611 349.867H0V366.934H85.077V494.934H0V512H93.611C98.321 512 102.144 508.186 102.144 503.467V358.4C102.144 353.681 98.321 349.867 93.611 349.867Z" fill="#FE8239"/>
<path d="M42.667 426.667C28.553 426.667 17.067 438.153 17.067 452.267C17.067 466.381 28.553 477.867 42.667 477.867C56.781 477.867 68.267 466.381 68.267 452.267C68.267 438.153 56.781 426.667 42.667 426.667ZM42.667 460.8C37.965 460.8 34.134 456.977 34.134 452.267C34.134 447.557 37.965 443.734 42.667 443.734C47.369 443.734 51.2 447.557 51.2 452.267C51.2 456.977 47.369 460.8 42.667 460.8Z" fill="#FE8239"/>
<path d="M503.467 264.533H8.533C3.823 264.533 0 268.347 0 273.066C0 305.996 26.795 332.799 59.733 332.799H452.266C485.196 332.799 511.999 305.996 511.999 273.066C512 268.348 508.186 264.533 503.467 264.533ZM452.267 315.733H59.733C39.125 315.733 21.888 301.047 17.928 281.6H494.071C490.112 301.047 472.875 315.733 452.267 315.733Z" fill="#FE8239"/>
<path d="M256 42.667C133.666 42.667 34.1331 142.2 34.1331 264.534V273.067C34.1331 277.786 37.9561 281.6 42.6661 281.6H469.333C474.052 281.6 477.866 277.786 477.866 273.067V264.534C477.867 142.199 378.342 42.667 256 42.667ZM51.2001 264.533C51.2001 151.611 143.078 59.733 256 59.733C368.922 59.733 460.8 151.611 460.8 264.533H51.2001Z" fill="#FE8239"/>
<path d="M115.644 140.006C109.679 146.713 104.15 153.89 99.209 161.348L113.434 170.777C117.94 163.984 122.974 157.439 128.401 151.338L115.644 140.006Z" fill="#FE8239"/>
<path d="M256 76.8C208.077 76.826 162.449 94.933 127.531 127.761L139.222 140.194C170.966 110.344 212.446 93.892 256.009 93.867L256 76.8Z" fill="#FE8239"/>
<path d="M281.6 0H230.4V17.067H281.6V0Z" fill="#FE8239"/>
<path d="M264.534 8.53299H247.467V51.2H264.534V8.53299Z" fill="#FE8239"/>
</svg>
